<svg width="24" height="24" viewBox="0 0 24 24" fill="none" xmlns="http://www.w3.org/2000/svg">
<path d="M13.02 2C14.82 2 15.2 2.02 16.12 2.06C17.18 2.11 17.91 2.28 18.54 2.53C19.2 2.78 19.76 3.13 20.31 3.68C20.87 4.23 21.21 4.79 21.47 5.45C21.72 6.08 21.88 6.81 21.93 7.88C21.98 8.83 21.99 9.2 21.99 11.2V12.8C21.99 14.8 21.98 15.17 21.93 16.12C21.9143 16.9468 21.7588 17.7651 21.47 18.54C21.21 19.2 20.87 19.76 20.32 20.31C19.76 20.87 19.2 21.21 18.54 21.47C17.91 21.72 17.18 21.88 16.12 21.93C15.17 21.98 14.79 21.99 12.79 21.99H11.2C9.20003 21.99 8.83003 21.98 7.87003 21.93C7.04321 21.9141 6.22502 21.7586 5.45003 21.47C4.78364 21.2195 4.17968 20.8271 3.68003 20.32C3.16784 19.8186 2.77186 19.211 2.52003 18.54C2.23165 17.765 2.07613 16.9468 2.06003 16.12C2.01101 15.0874 1.991 14.0537 2.00003 13.02V10.97C2.00003 9.17 2.02003 8.79 2.06003 7.87C2.11003 6.81 2.28003 6.08 2.52003 5.45C2.78003 4.79 3.12003 4.23 3.68003 3.68C4.17521 3.16743 4.78047 2.77418 5.45003 2.53C6.22448 2.23821 7.04266 2.07931 7.87003 2.06C8.79003 2.02 9.17003 2 10.97 2H13.02ZM13.04 3.8H10.95C9.22003 3.8 8.85003 3.82 7.95003 3.86C6.98003 3.9 6.45003 4.06 6.10003 4.2C5.63003 4.38 5.30003 4.6 4.95003 4.95C4.60003 5.3 4.38003 5.63 4.20003 6.1C4.07003 6.45 3.90003 6.98 3.86003 7.96C3.82003 8.86 3.80003 9.22 3.80003 10.96V13.04C3.80003 14.78 3.82003 15.14 3.86003 16.04C3.90003 17.01 4.06003 17.54 4.20003 17.89C4.38003 18.36 4.60003 18.69 4.95003 19.04C5.30003 19.39 5.63003 19.61 6.10003 19.79C6.45003 19.93 6.98003 20.09 7.96003 20.13C8.93003 20.18 9.28003 20.19 11.44 20.19H12.55C14.72 20.19 15.06 20.18 16.04 20.13C17.01 20.09 17.54 19.93 17.89 19.79C18.36 19.61 18.69 19.39 19.04 19.04C19.39 18.69 19.61 18.36 19.79 17.89C19.93 17.54 20.09 17.01 20.13 16.04C20.18 15.06 20.19 14.72 20.19 12.55V11.45C20.19 9.28 20.18 8.93 20.13 7.95C20.09 6.98 19.93 6.45 19.79 6.1C19.6291 5.66543 19.3728 5.27246 19.04 4.95C18.7178 4.61692 18.3248 4.3606 17.89 4.2C17.2969 3.98317 16.6715 3.86822 16.04 3.86C15.0408 3.81227 14.0404 3.79226 13.04 3.8ZM12 6.86C13.3619 6.86 14.668 7.40101 15.631 8.36401C16.594 9.32701 17.135 10.6331 17.135 11.995C17.135 13.3569 16.594 14.663 15.631 15.626C14.668 16.589 13.3619 17.13 12 17.13C10.6381 17.13 9.33204 16.589 8.36904 15.626C7.40604 14.663 6.86503 13.3569 6.86503 11.995C6.86503 10.6331 7.40604 9.32701 8.36904 8.36401C9.33204 7.40101 10.6381 6.86 12 6.86ZM12 8.66C11.1155 8.66 10.2673 9.01136 9.64183 9.6368C9.0164 10.2622 8.66503 11.1105 8.66503 11.995C8.66503 12.8795 9.0164 13.7278 9.64183 14.3532C10.2673 14.9786 11.1155 15.33 12 15.33C12.8845 15.33 13.7328 14.9786 14.3582 14.3532C14.9837 13.7278 15.335 12.8795 15.335 11.995C15.335 11.1105 14.9837 10.2622 14.3582 9.6368C13.7328 9.01136 12.8845 8.66 12 8.66ZM17.33 5.46C17.6483 5.46 17.9535 5.58643 18.1786 5.81147C18.4036 6.03652 18.53 6.34174 18.53 6.66C18.53 6.97826 18.4036 7.28348 18.1786 7.50853C17.9535 7.73357 17.6483 7.86 17.33 7.86C17.0118 7.86 16.7065 7.73357 16.4815 7.50853C16.2565 7.28348 16.13 6.97826 16.13 6.66C16.13 6.34174 16.2565 6.03652 16.4815 5.81147C16.7065 5.58643 17.0118 5.46 17.33 5.46Z" fill="white"/>
</svg>
