<svg width="17" height="17" viewBox="0 0 17 17" fill="none" xmlns="http://www.w3.org/2000/svg">
<path d="M8.49027 2.00537e-06C6.80951 0.00192619 5.16704 0.50211 3.77048 1.43731C2.37392 2.37252 1.28597 3.70075 0.644144 5.25414C0.00231957 6.80754 -0.164562 8.51633 0.164589 10.1646C0.49374 11.8128 1.30415 13.3264 2.49338 14.5142C3.68261 15.7019 5.19728 16.5104 6.84591 16.8375C8.49455 17.1646 10.2031 16.9955 11.7557 16.3517C13.3083 15.7079 14.6352 14.6183 15.5686 13.2206C16.5021 11.8229 17.0002 10.1798 17 8.49902C16.9994 7.38219 16.7787 6.27641 16.3507 5.24485C15.9227 4.21329 15.2957 3.27615 14.5055 2.48694C13.7153 1.69772 12.7773 1.0719 11.7452 0.645188C10.7131 0.218476 9.6071 -0.000764966 8.49027 2.00537e-06ZM8.80653 11.7161L4.1201 6.78345H13.493L8.80653 11.7161Z" fill="#030303"/>
</svg>
