<svg width="24" height="24" viewBox="0 0 24 24" fill="none" xmlns="http://www.w3.org/2000/svg">
<path d="M12 2C9.67546 2.00824 7.42643 2.82602 5.63952 4.31277C3.85262 5.79952 2.63948 7.86234 2.20866 10.1466C1.77785 12.4309 2.15627 14.7939 3.27888 16.8293C4.40149 18.8648 6.19815 20.4456 8.35998 21.3C8.25998 20.51 8.18998 19.3 8.38998 18.43L9.55998 13.46C9.55998 13.46 9.25998 12.86 9.25998 11.98C9.25998 10.59 10.07 9.56 11.08 9.56C11.93 9.56 12.35 10.2 12.35 10.96C12.35 11.82 11.8 13.1 11.51 14.29C11.27 15.29 12.01 16.1 13 16.1C14.78 16.1 16.14 14.23 16.14 11.53C16.14 9.13 14.42 7.47 11.96 7.47C11.3756 7.44433 10.792 7.53734 10.2446 7.74342C9.69709 7.94951 9.19705 8.26438 8.77463 8.66904C8.35221 9.07371 8.01616 9.55977 7.78678 10.0979C7.55739 10.636 7.43942 11.215 7.43998 11.8C7.43998 12.66 7.76998 13.58 8.17998 14.08C8.25998 14.18 8.26998 14.27 8.23998 14.37L7.95998 15.5C7.91998 15.68 7.80998 15.73 7.62998 15.64C6.36998 15.05 5.58998 13.24 5.58998 11.76C5.58998 8.61 7.88998 5.72 12.21 5.72C15.67 5.72 18.38 8.18 18.38 11.49C18.38 14.94 16.2 17.71 13.18 17.71C12.18 17.71 11.22 17.18 10.9 16.56L10.27 18.93C9.97485 19.8577 9.55787 20.7421 9.02998 21.56C10.4038 21.9816 11.8524 22.1021 13.277 21.9133C14.7016 21.7245 16.0687 21.2309 17.2854 20.4661C18.502 19.7014 19.5395 18.6833 20.3272 17.4814C21.115 16.2795 21.6344 14.9219 21.8501 13.5011C22.0658 12.0804 21.9728 10.6298 21.5774 9.24822C21.1819 7.86664 20.4934 6.58652 19.5586 5.49506C18.6238 4.40359 17.4648 3.52642 16.1604 2.9233C14.8561 2.32017 13.437 2.00525 12 2Z" fill="white"/>
</svg>
