<svg width="55" height="63" viewBox="0 0 55 63" fill="none" xmlns="http://www.w3.org/2000/svg">
<path fill-rule="evenodd" clip-rule="evenodd" d="M28.6103 58.8515C31.499 61.5248 35.2837 63.006 39.2103 62.9999C43.4094 62.9666 47.4252 61.2664 50.3827 58.2699C53.3403 55.2734 54.9999 51.2234 54.9999 47.0024C54.9999 42.7814 53.3403 38.7314 50.3827 35.7349C47.4252 32.7384 43.4094 31.0382 39.2103 31.0049C35.284 30.9982 31.4993 32.4787 28.6103 35.1514C26.9669 36.652 25.6537 38.4814 24.7551 40.5222C23.8565 42.563 23.3923 44.7701 23.3923 47.0019C23.3923 49.2337 23.8565 51.4408 24.7551 53.4816C25.6537 55.5225 26.9669 57.3519 28.6103 58.8525V58.8515Z" fill="#E99F2B"/>
<path fill-rule="evenodd" clip-rule="evenodd" d="M52.9258 55.9127C52.9256 55.8479 52.938 55.7837 52.9626 55.7238C52.9872 55.6638 53.0233 55.6094 53.0689 55.5635C53.1145 55.5177 53.1686 55.4814 53.2282 55.4568C53.2879 55.4321 53.3518 55.4195 53.4162 55.4197C53.4828 55.4166 53.5494 55.4271 53.6118 55.4504C53.6743 55.4737 53.7315 55.5094 53.78 55.5554C53.8284 55.6014 53.8672 55.6568 53.8939 55.7182C53.9206 55.7796 53.9347 55.8457 53.9355 55.9127C53.9378 55.9819 53.926 56.0509 53.9008 56.1152C53.8755 56.1796 53.8373 56.2381 53.7886 56.287C53.7399 56.336 53.6818 56.3744 53.6177 56.3998C53.5536 56.4251 53.4851 56.437 53.4162 56.4347C53.3496 56.4339 53.2838 56.4197 53.2227 56.3928C53.1616 56.366 53.1066 56.327 53.0608 56.2783C53.0151 56.2296 52.9795 56.1722 52.9563 56.1093C52.9331 56.0465 52.9228 55.9797 52.9258 55.9127ZM53.4162 56.3259C53.5242 56.3231 53.6269 56.2786 53.7031 56.2016C53.7793 56.1247 53.823 56.0212 53.8253 55.9127C53.8214 55.8074 53.7762 55.7078 53.6996 55.6358C53.623 55.5638 53.5211 55.5253 53.4162 55.5285C53.3156 55.5308 53.2197 55.572 53.1485 55.6436C53.0773 55.7151 53.0363 55.8115 53.034 55.9127C53.0354 56.017 53.0753 56.117 53.1459 56.1934C53.2165 56.2698 53.3129 56.317 53.4162 56.3259ZM53.3616 56.1612H53.2534V55.6931H53.4431C53.4818 55.6887 53.5208 55.6983 53.5532 55.7201C53.6069 55.7471 53.6069 55.776 53.6069 55.8309C53.6069 55.8857 53.5801 55.9417 53.5255 55.9417L53.6357 56.1612H53.4987L53.4431 55.9686H53.3616V55.8848H53.4689C53.4957 55.8848 53.4957 55.8578 53.4957 55.8309C53.4957 55.8039 53.4957 55.804 53.4689 55.777H53.3587L53.3616 56.1612Z" fill="#E99F2B"/>
<path fill-rule="evenodd" clip-rule="evenodd" d="M33.7193 45.3115C33.6637 44.7347 33.5555 44.1859 33.4453 43.6091H23.7746C23.8905 43.0431 24.0363 42.4838 24.2114 41.9335H32.9827C32.7914 41.3547 32.5726 40.7872 32.3264 40.231H24.8954C25.1674 39.6489 25.4679 39.0814 25.7969 38.5285H31.3972C31.0382 37.9411 30.6367 37.3811 30.1959 36.853H26.9971C27.4917 36.2454 28.0306 35.6756 28.6094 35.1485C26.3266 33.0672 23.4918 31.6968 20.4491 31.2039C17.4064 30.7109 14.2868 31.1165 11.4691 32.3714C8.6513 33.6263 6.25657 35.6765 4.57568 38.2731C2.89478 40.8697 2 43.9011 2 46.999C2 50.097 2.89478 53.1283 4.57568 55.7249C6.25657 58.3216 8.6513 60.3718 11.4691 61.6267C14.2868 62.8816 17.4064 63.2871 20.4491 62.7942C23.4918 62.3012 26.3266 60.9309 28.6094 58.8496C29.1802 58.3322 29.7112 57.7721 30.1979 57.174H26.9971C26.5663 56.6289 26.1653 56.0606 25.7959 55.4716H31.3962C31.7487 54.9287 32.0593 54.3596 32.3254 53.7691H24.8944C24.6375 53.2223 24.4091 52.6624 24.2104 52.0916H32.9817C33.165 51.5324 33.3197 50.9642 33.4453 50.3891C33.6863 49.2799 33.8055 48.1474 33.8007 47.012C33.8007 46.4352 33.7739 45.8584 33.7193 45.3095V45.3115Z" fill="#BF0C24"/>
<path fill-rule="evenodd" clip-rule="evenodd" d="M52.9257 50.7212C52.9229 50.6544 52.9335 50.5878 52.9568 50.5252C52.9801 50.4626 53.0157 50.4054 53.0615 50.3569C53.1072 50.3084 53.1622 50.2697 53.2231 50.2429C53.284 50.2162 53.3497 50.202 53.4162 50.2013C53.4848 50.1988 53.5533 50.2105 53.6173 50.2357C53.6813 50.261 53.7394 50.2991 53.7881 50.3479C53.8368 50.3966 53.875 50.4549 53.9004 50.5191C53.9257 50.5834 53.9376 50.6521 53.9354 50.7212C53.9355 50.7898 53.9222 50.8577 53.8961 50.9211C53.8701 50.9845 53.8318 51.0421 53.7836 51.0905C53.7354 51.139 53.6781 51.1775 53.615 51.2037C53.552 51.2298 53.4844 51.2433 53.4162 51.2431C53.2829 51.2374 53.1571 51.1797 53.0656 51.0823C52.974 50.9848 52.9238 50.8552 52.9257 50.7212ZM53.4162 51.1054C53.4687 51.1092 53.5214 51.1021 53.5711 51.0845C53.6207 51.0669 53.6662 51.0393 53.7048 51.0032C53.7433 50.9672 53.7741 50.9235 53.7951 50.875C53.8161 50.8265 53.827 50.7741 53.827 50.7212C53.827 50.6683 53.8161 50.6159 53.7951 50.5674C53.7741 50.5189 53.7433 50.4752 53.7048 50.4392C53.6662 50.4031 53.6207 50.3754 53.5711 50.3579C53.5214 50.3403 53.4687 50.3332 53.4162 50.337C53.3148 50.337 53.2176 50.3775 53.1459 50.4495C53.0742 50.5216 53.034 50.6193 53.034 50.7212C53.034 50.8231 53.0742 50.9208 53.1459 50.9928C53.2176 51.0649 53.3148 51.1054 53.4162 51.1054ZM53.3616 50.9408H53.2533V50.5017H53.5512C53.6048 50.5286 53.6048 50.5855 53.6048 50.6394C53.6009 50.663 53.5915 50.6853 53.5773 50.7046C53.5632 50.7238 53.5447 50.7394 53.5234 50.7501L53.6336 50.9427H53.4966L53.441 50.7781H53.3596V50.6943H53.4142C53.441 50.6943 53.4698 50.6942 53.4698 50.6673C53.4966 50.6673 53.4966 50.6403 53.4966 50.6124C53.4966 50.6053 53.4937 50.5984 53.4887 50.5933C53.4837 50.5883 53.4769 50.5855 53.4698 50.5855C53.4698 50.5565 53.441 50.5855 53.4142 50.5855H53.3596L53.3616 50.9408Z" fill="white"/>
<path fill-rule="evenodd" clip-rule="evenodd" d="M23.2274 51.6254C22.8105 51.7544 22.3786 51.8282 21.9427 51.8449C21.1217 51.8449 20.6312 51.325 20.6312 50.3889C20.6372 50.1885 20.6551 49.9885 20.6849 49.7901L20.7951 49.1595L20.8765 48.6376L21.6141 44.1338H23.2532L23.0616 45.1218H24.101L23.8538 46.7694H22.8154L22.3785 49.4639C22.3598 49.5538 22.3508 49.6454 22.3517 49.7373C22.3517 50.0945 22.5155 50.2362 22.9256 50.2362C23.1 50.2335 23.2738 50.2147 23.4448 50.1803L23.2274 51.6254ZM28.5279 51.5715C27.9588 51.734 27.3702 51.8169 26.7786 51.818C26.3832 51.8665 25.9821 51.8239 25.6055 51.6935C25.229 51.563 24.8869 51.3482 24.6052 51.0652C24.3234 50.7822 24.1095 50.4385 23.9795 50.0601C23.8495 49.6817 23.8069 49.2784 23.8548 48.881C23.8548 46.6007 25.1117 44.9521 26.86 44.9521C27.1731 44.9347 27.4862 44.9852 27.7781 45.1002C28.07 45.2152 28.3339 45.3921 28.5517 45.6187C28.7696 45.8454 28.9364 46.1166 29.0407 46.4138C29.145 46.711 29.1844 47.0273 29.1563 47.3412C29.15 47.8867 29.0858 48.4301 28.9647 48.9619H25.5485C25.5292 49.0334 25.5202 49.1073 25.5217 49.1814C25.5217 49.9498 26.041 50.3341 27.0238 50.3341C27.639 50.3327 28.2461 50.1922 28.7999 49.9229L28.5279 51.5715ZM27.5162 47.6446V47.3143C27.5304 47.2015 27.5191 47.0869 27.4834 46.979C27.4477 46.8712 27.3883 46.7728 27.3097 46.691C27.2311 46.6092 27.1353 46.5462 27.0293 46.5066C26.9233 46.4669 26.8098 46.4518 26.6972 46.462C26.1511 46.462 25.7679 46.8732 25.6051 47.6446H27.5162ZM10.1137 51.7092H8.41798L9.40282 45.474L7.1899 51.7092H6.01545L5.87844 45.502L4.84 51.7092H3.1731L4.51136 43.6069H6.9983L7.05192 48.6056L8.7188 43.6069H11.451L10.1137 51.7092ZM14.2387 48.7703C14.1304 48.7499 14.0203 48.7408 13.9101 48.7433C12.9272 48.7433 12.4348 49.1276 12.4348 49.7313C12.4258 49.8191 12.4354 49.9078 12.4631 49.9916C12.4908 50.0754 12.5359 50.1524 12.5954 50.2173C12.655 50.2822 12.7276 50.3337 12.8084 50.3682C12.8892 50.4028 12.9764 50.4198 13.0642 50.4179C13.8833 50.4209 14.2109 49.7293 14.2387 48.7723V48.7703ZM15.6058 51.7092H14.1305L14.1573 51.0216C13.9507 51.2998 13.676 51.5196 13.3599 51.6595C13.0438 51.7994 12.6971 51.8547 12.3534 51.82C12.1337 51.804 11.9194 51.7443 11.723 51.6441C11.5266 51.5438 11.352 51.4052 11.2096 51.2364C11.0671 51.0675 10.9596 50.8718 10.8933 50.6607C10.827 50.4495 10.8033 50.2272 10.8235 50.0067C10.8268 49.7182 10.8723 49.4317 10.9585 49.1564C11.2325 48.1395 12.2422 47.5089 13.8009 47.4809C13.9925 47.4809 14.2913 47.4809 14.5653 47.5079C14.6056 47.3651 14.624 47.2171 14.6199 47.0688C14.6199 46.6277 14.2645 46.4899 13.4733 46.4899C12.9907 46.4875 12.5108 46.5623 12.0516 46.7115L11.8064 46.7664L11.6962 46.7933L11.9434 45.3104C12.5853 45.086 13.2585 44.9655 13.9379 44.9531C15.4112 44.9531 16.2054 45.6407 16.2054 46.9041C16.2224 47.336 16.1945 47.7684 16.122 48.1944L15.7398 50.5546L15.6862 50.9677L15.6594 51.298L15.6326 51.5176L15.6058 51.7092ZM36.7779 45.1717C37.3165 45.1903 37.8422 45.3418 38.3088 45.6128L38.6066 43.8544C38.4642 43.7914 38.3184 43.7364 38.1698 43.6897L37.4858 43.4971C36.5967 43.3308 35.6791 43.4168 34.836 43.7456C34.462 43.9921 34.1219 44.2871 33.8244 44.6228L33.606 44.5679L31.8587 45.8044L31.9401 45.1168H30.1362L29.0719 51.7032H30.7924L31.4199 48.1625C31.4199 48.1625 31.6671 47.6635 31.7753 47.5029C31.8812 47.3522 32.0267 47.234 32.1955 47.1614C32.3642 47.0888 32.5497 47.0647 32.7313 47.0917H32.8683C32.8113 47.5097 32.7841 47.9312 32.7869 48.3531C32.7869 50.4957 33.9882 51.8459 35.8457 51.8459C36.3547 51.8427 36.8609 51.7689 37.3498 51.6264L37.6476 49.7592C37.2089 50.025 36.7109 50.176 36.1991 50.1983C35.1895 50.1983 34.5888 49.4299 34.5888 48.2224C34.5918 46.4361 35.4933 45.1737 36.7779 45.1737V45.1717ZM51.2865 43.6069L50.9043 45.9131C50.7522 45.6309 50.5271 45.3952 50.2527 45.2309C49.9784 45.0667 49.6649 44.98 49.3456 44.98C48.8653 44.9946 48.3985 45.1437 47.9979 45.4104C47.5973 45.6772 47.2788 46.051 47.0781 46.4899V46.463L45.986 45.8054L46.0962 45.1178H44.2655L43.2271 51.7102H44.9208L45.4946 48.1675C45.4946 48.1675 45.9334 47.6685 46.0406 47.5079C46.1323 47.3894 46.2478 47.2916 46.3795 47.2207C46.5111 47.1499 46.6561 47.1077 46.8051 47.0967C46.5993 47.7254 46.4987 48.384 46.5072 49.0457C46.5072 50.6933 47.3531 51.7921 48.61 51.7921C48.9135 51.7988 49.2145 51.7354 49.4899 51.6068C49.7653 51.4783 50.0077 51.288 50.1984 51.0506L50.115 51.7102H51.7273L53.0388 43.6079L51.2865 43.6069ZM49.1818 50.1424C48.608 50.1424 48.3092 49.7033 48.3092 48.8521C48.3092 47.5607 48.8552 46.6277 49.6474 46.6277C50.2431 46.6277 50.5489 47.0957 50.5489 47.918C50.5479 49.2383 50.0018 50.1454 49.1808 50.1454L49.1818 50.1424ZM41.2872 48.7703C41.1788 48.7499 41.0687 48.7408 40.9585 48.7433C39.9737 48.7433 39.4833 49.1276 39.4833 49.7313C39.4741 49.819 39.4836 49.9076 39.5111 49.9913C39.5386 50.075 39.5836 50.1519 39.6429 50.2169C39.7022 50.2818 39.7746 50.3333 39.8553 50.3679C39.936 50.4026 40.023 50.4196 40.1107 50.4179C40.9317 50.4209 41.2594 49.7293 41.2872 48.7723V48.7703ZM42.6522 51.7092H41.1501L41.2077 51.0266C41.0015 51.3047 40.7271 51.5243 40.4113 51.6642C40.0956 51.8041 39.7492 51.8595 39.4058 51.825C39.1814 51.8157 38.9612 51.7608 38.7584 51.6636C38.5557 51.5664 38.3746 51.429 38.2262 51.2595C38.0777 51.0901 37.965 50.8921 37.8947 50.6777C37.8245 50.4632 37.7981 50.2366 37.8174 50.0117C37.8174 48.4469 38.9918 47.4859 40.8494 47.4859C41.0955 47.4823 41.3417 47.4913 41.587 47.5129C41.6346 47.371 41.6626 47.2233 41.6704 47.0738C41.6704 46.6327 41.3149 46.4969 40.4959 46.4969C40.0136 46.496 39.534 46.5701 39.0743 46.7165L38.8558 46.7714L38.7456 46.7983L38.9908 45.3154C39.6328 45.0914 40.3059 44.9708 40.9854 44.9581C42.4606 44.9581 43.2251 45.6457 43.2251 46.9091C43.2573 47.3409 43.2299 47.7752 43.1437 48.1994L42.7883 50.5616L42.7346 50.9727L42.679 51.303L42.6522 51.5226V51.7152V51.7092ZM19.1838 46.5199C19.6138 46.5222 20.0431 46.5586 20.4674 46.6287L20.7126 45.0908C20.2222 45.037 19.566 44.9531 19.1828 44.9531C17.2707 44.9531 16.6412 45.998 16.6412 47.2045C16.6348 47.605 16.756 47.997 16.9871 48.3233C17.2183 48.6496 17.5473 48.8929 17.9259 49.0178C18.6099 49.3481 18.7201 49.402 18.7201 49.7054C18.7201 50.1165 18.3667 50.363 17.7105 50.363C17.1791 50.3636 16.6516 50.271 16.1518 50.0895L15.9602 51.5994L15.987 51.6264L16.3156 51.6813C16.4604 51.7167 16.6068 51.7447 16.7544 51.7651C17.1634 51.792 17.5189 51.819 17.7373 51.819C19.6494 51.819 20.4426 51.0775 20.4426 49.6235C20.4547 49.2187 20.336 48.8209 20.1045 48.4896C19.8729 48.1583 19.5408 47.9112 19.158 47.7853C18.4203 47.455 18.3369 47.4011 18.3369 47.0977C18.3369 46.7943 18.6645 46.5209 19.1838 46.5209V46.5199Z" fill="#082C5C"/>
<path fill-rule="evenodd" clip-rule="evenodd" d="M39.0783 43.3335L38.7804 45.0919C38.3141 44.8214 37.7887 44.6706 37.2506 44.6528C35.9659 44.6528 35.0664 45.9142 35.0664 47.7005C35.0664 48.937 35.6621 49.6784 36.6787 49.6784C37.1856 49.653 37.6801 49.5124 38.1252 49.2673L37.8274 51.1055C37.34 51.2555 36.8348 51.339 36.3253 51.3539C34.4678 51.3539 33.3181 50.0068 33.3181 47.8382C33.3181 44.9532 34.9066 42.9214 37.1702 42.9214C37.4373 42.9167 37.704 42.9448 37.9644 43.0052L38.6484 43.1699C38.8688 43.2517 38.9224 43.2787 39.0872 43.3325L39.0783 43.3335ZM33.5594 44.5431H33.3956C32.8218 44.5431 32.4941 44.8185 31.9739 45.6148L32.1377 44.5979H30.579L29.5148 51.1903H31.2353C31.8647 47.1527 32.0295 46.4661 32.8476 46.4661H32.9578C33.0835 45.8056 33.3038 45.1669 33.612 44.57L33.5594 44.5431ZM23.6683 51.1055C23.2752 51.2519 22.8594 51.3269 22.4402 51.327C22.2491 51.3448 22.0565 51.3186 21.8769 51.2504C21.6974 51.1823 21.5356 51.074 21.4039 50.9337C21.2722 50.7934 21.1739 50.6248 21.1166 50.4407C21.0593 50.2566 21.0444 50.0618 21.0731 49.871C21.0791 49.6778 21.0974 49.4851 21.1277 49.2942L21.2379 48.6346L21.3213 48.1147L22.057 43.609H23.7526L23.561 44.5969H24.4337L24.2153 46.2176H23.3406L22.877 48.9639C22.856 49.0541 22.847 49.1467 22.8502 49.2393C22.8502 49.5677 23.014 49.7054 23.424 49.7054C23.5807 49.7194 23.7386 49.7007 23.8877 49.6505L23.6693 51.1044L23.6683 51.1055ZM17.0851 46.6856C17.08 47.0888 17.2011 47.4834 17.4312 47.8136C17.6614 48.1438 17.9891 48.393 18.3678 48.5258C19.0786 48.8541 19.1888 48.9649 19.1888 49.2383C19.1888 49.6515 18.891 49.8441 18.204 49.8441C17.6844 49.84 17.1685 49.7562 16.6741 49.5956L16.4289 51.1055L16.5103 51.1344L16.8081 51.1893C16.9597 51.2276 17.1155 51.2457 17.2718 51.2432C17.5797 51.2853 17.8903 51.304 18.201 51.2991C20.0049 51.2991 20.8527 50.6115 20.8527 49.1036C20.8787 48.7071 20.7752 48.3128 20.5581 47.9807C20.3409 47.6486 20.0219 47.3967 19.6495 47.2634C18.9118 46.9331 18.8304 46.8523 18.8304 46.5489C18.8304 46.1917 19.1282 46.027 19.6782 46.027C20.0889 46.0304 20.499 46.0584 20.9063 46.1108L21.1536 44.6009C20.6565 44.5161 20.1536 44.47 19.6495 44.4632C17.7334 44.4622 17.0523 45.4771 17.0811 46.6866L17.0851 46.6856ZM52.1652 51.1893H50.5529L50.6343 50.5566C50.4389 50.7854 50.1956 50.9681 49.9219 51.0916C49.6482 51.2151 49.3508 51.2764 49.0508 51.2712C47.7939 51.2712 46.9729 50.2013 46.9729 48.5538C46.9729 46.3583 48.2566 44.4892 49.7597 44.4892C50.0867 44.4908 50.408 44.5746 50.6946 44.7328C50.9812 44.8911 51.2239 45.1188 51.4007 45.3953L51.783 43.087H53.4737L52.1622 51.1893H52.1652ZM49.6505 49.6515C50.4447 49.6515 50.9887 48.7174 50.9887 47.4271C50.9887 46.5748 50.6909 46.1297 50.0873 46.1297C49.3228 46.1297 48.749 47.0359 48.749 48.3252C48.7464 49.2094 49.0459 49.6518 49.6475 49.6525L49.6505 49.6515ZM28.9141 51.0486C28.3406 51.2355 27.7409 51.3285 27.1381 51.324C25.224 51.324 24.2411 50.3071 24.2411 48.3582C24.2411 46.1048 25.498 44.4293 27.2195 44.4293C27.5342 44.4098 27.8494 44.4587 28.1437 44.5727C28.4379 44.6866 28.7044 44.8629 28.9248 45.0895C29.1452 45.3162 29.3145 45.588 29.4211 45.8863C29.5277 46.1846 29.5691 46.5025 29.5426 46.8183C29.5379 47.3745 29.4645 47.9279 29.3242 48.4659H25.9348C25.9145 48.528 25.9054 48.5932 25.908 48.6585C25.908 49.4289 26.4272 49.8132 27.4101 49.8132C28.0269 49.8244 28.6369 49.6825 29.1862 49.4L28.9141 51.0486ZM27.9561 47.1217V46.7944C27.9703 46.6817 27.9591 46.5672 27.9233 46.4594C27.8876 46.3516 27.8282 46.2533 27.7496 46.1716C27.671 46.09 27.5751 46.0272 27.4691 45.9878C27.3631 45.9484 27.2496 45.9335 27.137 45.9442C26.591 45.9442 26.2078 46.3553 26.045 47.1247L27.9561 47.1217ZM10.5506 51.1853H8.85689L9.83974 44.9502L7.62685 51.1853H6.45237L6.31536 45.0071L5.27789 51.1853H3.68945L5.02772 43.0831H7.48784L7.56925 48.1087L9.20834 43.0831H11.8889L10.5506 51.1853ZM14.7858 48.2464C14.622 48.2464 14.5406 48.2194 14.4036 48.2194C13.4475 48.2194 12.9551 48.5767 12.9551 49.2344C12.9432 49.3186 12.9499 49.4044 12.9748 49.4857C12.9996 49.567 13.042 49.6418 13.0988 49.7048C13.1557 49.7677 13.2257 49.8174 13.3038 49.8501C13.3819 49.8828 13.4662 49.8978 13.5508 49.894C14.2666 49.899 14.755 49.2383 14.7858 48.2504V48.2464ZM16.0456 51.1853H14.624L14.6508 50.4977C14.4365 50.7672 14.1605 50.9805 13.8464 51.1196C13.5322 51.2586 13.1894 51.3191 12.8469 51.2961C12.6242 51.2932 12.4046 51.2432 12.2024 51.1495C12.0001 51.0557 11.8198 50.9203 11.673 50.752C11.5262 50.5836 11.4162 50.3861 11.3503 50.1723C11.2844 49.9585 11.2639 49.7331 11.2902 49.5108C11.2902 47.8901 12.3823 46.956 14.2954 46.956C14.487 46.956 14.7342 46.983 15.0062 47.0109C15.0443 46.8773 15.0624 46.7387 15.0598 46.5998C15.0598 46.1607 14.762 46.001 13.9678 46.001C13.4895 45.9947 13.0124 46.05 12.5481 46.1657L12.3009 46.2475L12.1371 46.2765L12.3843 44.7935C13.0465 44.579 13.7376 44.4676 14.4334 44.4632C15.9087 44.4632 16.7009 45.1209 16.7009 46.3853C16.6906 46.8277 16.6448 47.2685 16.5639 47.7035L16.1817 50.0387L16.1271 50.4499L16.1002 50.7802L16.0735 51.0267L16.0466 51.1913L16.0456 51.1853ZM41.8372 48.2464C41.6456 48.2464 41.5632 48.2194 41.455 48.2194C40.4702 48.2194 39.9778 48.5767 39.9778 49.2344C39.9688 49.3209 39.9787 49.4083 40.0068 49.4906C40.0348 49.5729 40.0804 49.6481 40.1403 49.7108C40.2002 49.7736 40.273 49.8225 40.3537 49.8542C40.4343 49.8858 40.5208 49.8994 40.6072 49.894C41.2912 49.894 41.8084 49.2344 41.8372 48.2464ZM43.0941 51.1853H41.6724L41.6992 50.4977C41.4848 50.7671 41.2088 50.9803 40.8947 51.1193C40.5806 51.2583 40.2378 51.319 39.8954 51.2961C39.6727 51.2932 39.4531 51.2432 39.2508 51.1495C39.0486 51.0557 38.8682 50.9203 38.7214 50.752C38.5746 50.5836 38.4647 50.3861 38.3988 50.1723C38.3328 49.9585 38.3123 49.7331 38.3387 49.5108C38.3387 47.8901 39.4307 46.956 41.3438 46.956C41.5354 46.956 41.7807 46.983 42.0279 47.0109C42.0713 46.8776 42.0986 46.7396 42.1093 46.5998C42.1093 46.1607 41.8114 46.001 41.0172 46.001C40.5301 45.9948 40.0441 46.0501 39.5707 46.1657L39.3503 46.2475L39.1865 46.2765L39.4337 44.7935C40.096 44.579 40.787 44.4676 41.4828 44.4632C42.9581 44.4632 43.7226 45.1209 43.7226 46.3853C43.7265 46.8285 43.6805 47.2707 43.5855 47.7035L43.2301 50.0387L43.1765 50.4499L43.1219 50.7802L43.0951 51.0267V51.1913L43.0941 51.1853ZM47.6828 44.539H47.517C46.9451 44.539 46.6175 44.8145 46.0973 45.6109L46.2611 44.5939H44.7024L43.664 51.1863H45.3596C45.9871 47.1487 46.1539 46.4621 46.9719 46.4621H47.0801C47.2056 45.8012 47.4267 45.1624 47.7364 44.566L47.6828 44.539Z" fill="white"/>
<path d="M10.4473 8.24151L8.93656 1.39011C8.82708 0.992881 8.56961 0.646367 8.21147 0.414266C7.85334 0.182165 7.41862 0.0800903 6.98723 0.126791H0.0610828L0 0.439826C5.39466 1.67613 8.96316 4.65929 10.4473 8.24151Z" fill="#F68A0A"/>
<path d="M26.4981 0.264893H22.0229L19.228 15.7724H23.6963L26.4981 0.264893Z" fill="#004A89"/>
<path d="M13.1753 15.7577L20.2137 0.276367H15.4774L11.0988 10.8525L10.6307 9.25566C9.21031 6.62901 7.07239 4.40946 4.43872 2.82724L8.44087 15.7605L13.1753 15.7577Z" fill="#004A89"/>
<path d="M39.2633 10.7022C39.2791 8.94047 38.0807 7.59795 35.5066 6.48928C33.9406 5.77377 32.9856 5.29488 32.9974 4.56819C32.9974 3.92628 33.8066 3.23593 35.5598 3.23593C36.7063 3.21174 37.8456 3.4142 38.9046 3.83033L39.3087 4.00641L39.9167 0.646861C38.6307 0.209768 37.2732 -0.00911958 35.9067 0.000291022C31.4896 0.000291022 28.3794 2.10024 28.3498 5.11602C28.3232 7.34547 30.5731 8.58644 32.2702 9.32897C34.0106 10.0864 34.593 10.5718 34.5821 11.2501C34.5703 12.2907 33.1965 12.7631 31.9104 12.7631C30.4583 12.8037 29.0161 12.525 27.6974 11.9488L27.1258 11.701L26.4971 15.177C28.091 15.7327 29.778 16.0114 31.4768 15.9996C36.1728 15.9987 39.2278 13.9239 39.2633 10.7022Z" fill="#004A89"/>
<path d="M44.5799 13.448L50.3057 13.4536C50.4417 13.994 50.8497 15.7771 50.8497 15.7771H54.9996L51.3789 0.281844H47.9296C47.4443 0.222396 46.9517 0.315877 46.5283 0.547796C46.1048 0.779714 45.774 1.13715 45.5871 1.56475L38.9468 15.7771H43.6456C43.6456 15.7771 44.4055 13.8672 44.5799 13.448ZM47.6448 5.93794C47.6222 5.97986 48.0144 5.04074 48.2361 4.45752L48.5387 5.79444C48.5387 5.79444 49.3921 9.49871 49.5715 10.272H45.867C46.2355 9.38132 47.6409 5.93885 47.6409 5.93885L47.6448 5.93794Z" fill="#004A89"/>
</svg>
