<svg width="15" height="15" viewBox="0 0 15 15" fill="none" xmlns="http://www.w3.org/2000/svg">
<path d="M13.585 1.2169H12.0982V0.498731C12.0982 0.366459 12.045 0.239612 11.9502 0.146082C11.8555 0.0525519 11.7269 0 11.5929 0C11.4589 0 11.3303 0.0525519 11.2356 0.146082C11.1408 0.239612 11.0875 0.366459 11.0875 0.498731V1.21292H3.91146V0.498731C3.91146 0.366459 3.85822 0.239612 3.76345 0.146082C3.66868 0.0525519 3.54014 0 3.40611 0C3.27208 0 3.14354 0.0525519 3.04877 0.146082C2.954 0.239612 2.90075 0.366459 2.90075 0.498731V1.21292H1.415C1.04059 1.21291 0.681447 1.35937 0.416228 1.62017C0.151009 1.88098 0.00133717 2.2349 0 2.60439V3.85618H14.996V2.60439C14.9936 2.23628 14.844 1.88399 14.5798 1.62416C14.3155 1.36433 13.958 1.21795 13.585 1.2169Z" fill="#030303"/>
<path d="M0 13.6086C0.00133717 13.9781 0.151009 14.332 0.416228 14.5928C0.681447 14.8536 1.04059 15 1.415 15H13.585C13.9594 15 14.3186 14.8536 14.5838 14.5928C14.849 14.332 14.9987 13.9781 15 13.6086V4.93066H0V13.6086ZM7.075 11.868C7.11993 11.3985 7.26002 10.9427 7.48695 10.5277C7.71388 10.1127 8.02302 9.74693 8.396 9.45215C9.09541 8.72799 9.27835 8.50356 9.27835 7.939C9.27835 7.51009 9.16616 7.17495 8.67192 7.17495C8.17769 7.17495 8.02709 7.53204 8.00384 8.10258H7.11138C7.08791 7.8893 7.11245 7.67353 7.18324 7.47068C7.25404 7.26783 7.36934 7.0829 7.52092 6.92912C7.6725 6.77533 7.85662 6.65648 8.06013 6.58104C8.26364 6.50559 8.48151 6.47541 8.6982 6.49267C8.90216 6.46456 9.10993 6.4829 9.30559 6.54627C9.50126 6.60965 9.67963 6.7164 9.82704 6.85831C9.97446 7.00023 10.087 7.17355 10.156 7.36502C10.2251 7.55649 10.2488 7.76101 10.2254 7.96293C10.2254 8.63222 10.0232 8.98734 9.26016 9.72446C8.78529 10.1283 8.40375 10.6279 8.1413 11.1897H10.382L10.2567 11.9189H7.075V11.868ZM4.67657 6.96747C5.047 6.91623 5.39635 6.76661 5.68728 6.53458H6.30281V11.9209H5.38104V7.53205C5.14897 7.58539 4.91179 7.61414 4.67354 7.61783L4.67657 6.96747Z" fill="#030303"/>
</svg>
