<svg width="15" height="15" viewBox="0 0 15 15" fill="none" xmlns="http://www.w3.org/2000/svg">
<path d="M7.50171 1.96636e-07C6.01828 -0.000339417 4.56807 0.439242 3.33447 1.26315C2.10088 2.08705 1.13931 3.25828 0.571386 4.62869C0.00346539 5.99911 -0.145286 7.50715 0.143909 8.96212C0.433104 10.4171 1.14726 11.7536 2.19609 12.8027C3.24491 13.8518 4.5813 14.5662 6.0362 14.8558C7.4911 15.1453 8.99918 14.9969 10.3697 14.4293C11.7403 13.8616 12.9117 12.9004 13.7359 11.667C14.5601 10.4336 15 8.98344 15 7.50001C15.0001 6.51521 14.8063 5.54001 14.4295 4.63013C14.0527 3.72026 13.5004 2.8935 12.8042 2.19706C12.1079 1.50063 11.2812 0.948153 10.3714 0.571182C9.46164 0.194211 8.48651 0.000112932 7.50171 1.96636e-07V1.96636e-07ZM10.4061 10.0189C10.3701 10.0695 10.3245 10.1126 10.2718 10.1455C10.2192 10.1785 10.1605 10.2007 10.0992 10.2109C10.038 10.2211 9.97529 10.2191 9.9148 10.205C9.8543 10.1909 9.79717 10.165 9.74672 10.1288L6.966 8.14303V3.93631C6.9761 3.81803 7.03021 3.70784 7.11765 3.62755C7.20509 3.54726 7.31947 3.5027 7.43818 3.5027C7.55689 3.5027 7.67127 3.54726 7.75871 3.62755C7.84614 3.70784 7.90028 3.81803 7.91038 3.93631V7.6571L10.2919 9.3604C10.3428 9.39604 10.3861 9.44136 10.4194 9.49379C10.4527 9.54622 10.4753 9.60473 10.4859 9.66592C10.4965 9.72711 10.4949 9.78979 10.4812 9.85037C10.4675 9.91094 10.442 9.96821 10.4061 10.0189V10.0189Z" fill="#030303"/>
</svg>
